<mxfile host="Electron" modified="2023-05-20T18:30:51.474Z" agent="Mozilla/5.0 (Windows NT 10.0; Win64; x64) AppleWebKit/537.36 (KHTML, like Gecko) draw.io/21.2.8 Chrome/112.0.5615.165 Electron/24.2.0 Safari/537.36" etag="UFmqgGQ_WrVxa6m7dvz1" version="21.2.8" type="device">
  <diagram name="Page-1" id="Pm3rEggoYrk7gFDegogl">
    <mxGraphModel dx="2100" dy="1242" grid="1" gridSize="10" guides="1" tooltips="1" connect="1" arrows="1" fold="1" page="1" pageScale="1" pageWidth="1169" pageHeight="827" math="0" shadow="0">
      <root>
        <mxCell id="0" />
        <mxCell id="1" parent="0" />
        <UserObject label="" Function="EN_DIO_Error_T DIO_init(uint8_t pinNumber, EN_DIO_PORT_T portNumber, EN_DIO_DIRECTION_T direction);" tags="Flowchart" id="KIi-ZBUEU_rnXSu9s31x-1">
          <mxCell style="vsdxID=219;fillColor=#fff2cc;shape=stencil(UzV2Ls5ILEhVNTIoLinKz04tz0wpyVA1dlE1MsrMy0gtyiwBslSNXVWNndPyi1LTi/JL81Ig/IJEkEoQKze/DGRCBUSfAUiHkUElhGcK4bpBVOZk5iGpNEVVikeloQHZpsK0YlWLz1QgA+HFtMycHEgIIcujBwlQCBKcxq4A);strokeColor=#d6b656;spacingTop=-1;spacingBottom=-1;spacingLeft=-1;spacingRight=-1;points=[[0,0.5,0],[1,0.5,0],[0.5,0,0],[0.5,1,0]];labelBackgroundColor=none;rounded=1;html=1;whiteSpace=wrap;fontFamily=Calibri;fontSize=11.27;" vertex="1" parent="1">
            <mxGeometry x="370" y="320" width="240" height="130" as="geometry" />
          </mxCell>
        </UserObject>
        <mxCell id="KIi-ZBUEU_rnXSu9s31x-2" value="&lt;div style=&quot;font-size: 11.27px;&quot;&gt;&lt;font style=&quot;font-size: 11.27px;&quot;&gt;Sense_Control == LOW_LEVEL_SENSE_CONTROL&lt;/font&gt;&lt;br style=&quot;font-size: 11.27px;&quot;&gt;&lt;/div&gt;" style="text;vsdxID=219;fillColor=none;gradientColor=none;strokeColor=none;spacingTop=-1;spacingBottom=-1;spacingLeft=-1;spacingRight=-1;points=[[0,0.5,0],[1,0.5,0],[0.5,0,0],[0.5,1,0]];labelBackgroundColor=none;rounded=1;html=1;whiteSpace=wrap;verticalAlign=middle;align=center;overflow=width;;html=1;fontColor=#000000;fontFamily=Calibri;fontSize=11.27;" vertex="1" parent="KIi-ZBUEU_rnXSu9s31x-1">
          <mxGeometry x="51.44275862068966" y="16.103749999999998" width="137.1144827586207" height="89.65937499999998" as="geometry" />
        </mxCell>
        <mxCell id="KIi-ZBUEU_rnXSu9s31x-3" value="&lt;div style=&quot;font-size: 11.27px;&quot;&gt;&lt;font style=&quot;font-size: 11.27px;&quot;&gt;MCU_vEnableInterrupt();&lt;/font&gt;&lt;/div&gt;&lt;div style=&quot;font-size: 11.27px;&quot;&gt;     &lt;font style=&quot;font-size: 11.27px;&quot;&gt;CLEAR_BIT(MCUCR_REG,MCUCR_REG_ISC01_BITS);&lt;/font&gt;&lt;/div&gt;&lt;div style=&quot;font-size: 11.27px;&quot;&gt;&lt;font style=&quot;font-size: 11.27px;&quot;&gt;     CLEAR_BIT(MCUCR_REG,MCUCR_REG_ISC00_BITS);&lt;/font&gt;&lt;/div&gt;&lt;div style=&quot;font-size: 11.27px;&quot;&gt;&lt;font style=&quot;font-size: 11.27px;&quot;&gt;&lt;span style=&quot;font-size: 11.27px;&quot;&gt;     &lt;/span&gt;SET_BIT(GICR_REG,GICR_REG_INT0_BITS);&lt;/font&gt;&lt;/div&gt;" style="rounded=0;whiteSpace=wrap;html=1;fontSize=11.27;fillColor=#d5e8d4;strokeColor=#82b366;fontFamily=Calibri;" vertex="1" parent="1">
          <mxGeometry x="370" y="550" width="240" height="80" as="geometry" />
        </mxCell>
        <mxCell id="KIi-ZBUEU_rnXSu9s31x-5" value="YES" style="text;html=1;strokeColor=none;fillColor=none;align=center;verticalAlign=middle;whiteSpace=wrap;rounded=0;fontSize=11;fontFamily=Calibri;" vertex="1" parent="1">
          <mxGeometry x="410" y="520" width="60" height="30" as="geometry" />
        </mxCell>
        <UserObject label="" Function="EN_DIO_Error_T DIO_init(uint8_t pinNumber, EN_DIO_PORT_T portNumber, EN_DIO_DIRECTION_T direction);" tags="Flowchart" id="KIi-ZBUEU_rnXSu9s31x-6">
          <mxCell style="vsdxID=219;fillColor=#fff2cc;shape=stencil(UzV2Ls5ILEhVNTIoLinKz04tz0wpyVA1dlE1MsrMy0gtyiwBslSNXVWNndPyi1LTi/JL81Ig/IJEkEoQKze/DGRCBUSfAUiHkUElhGcK4bpBVOZk5iGpNEVVikeloQHZpsK0YlWLz1QgA+HFtMycHEgIIcujBwlQCBKcxq4A);strokeColor=#d6b656;spacingTop=-1;spacingBottom=-1;spacingLeft=-1;spacingRight=-1;points=[[0,0.5,0],[1,0.5,0],[0.5,0,0],[0.5,1,0]];labelBackgroundColor=none;rounded=1;html=1;whiteSpace=wrap;fontFamily=Calibri;fontSize=11.27;" vertex="1" parent="1">
            <mxGeometry x="695" y="320" width="280" height="130" as="geometry" />
          </mxCell>
        </UserObject>
        <mxCell id="KIi-ZBUEU_rnXSu9s31x-7" value="&lt;div style=&quot;font-size: 11.27px;&quot;&gt;&lt;font style=&quot;font-size: 11.27px;&quot;&gt;Sense_Control ==&amp;nbsp;ANY_LOGICAL_SENSE_CONTROL&lt;/font&gt;&lt;br style=&quot;font-size: 11.27px;&quot;&gt;&lt;/div&gt;" style="text;vsdxID=219;fillColor=none;gradientColor=none;strokeColor=none;spacingTop=-1;spacingBottom=-1;spacingLeft=-1;spacingRight=-1;points=[[0,0.5,0],[1,0.5,0],[0.5,0,0],[0.5,1,0]];labelBackgroundColor=none;rounded=1;html=1;whiteSpace=wrap;verticalAlign=middle;align=center;overflow=width;;html=1;fontColor=#000000;fontFamily=Calibri;fontSize=11.27;" vertex="1" parent="KIi-ZBUEU_rnXSu9s31x-6">
          <mxGeometry x="60.01655172413793" y="16.103749999999998" width="159.96689655172415" height="89.65937499999998" as="geometry" />
        </mxCell>
        <mxCell id="KIi-ZBUEU_rnXSu9s31x-8" value="&lt;div style=&quot;font-size: 11.27px;&quot;&gt;&lt;font style=&quot;font-size: 11.27px;&quot;&gt;MCU_vEnableInterrupt();&lt;/font&gt;&lt;/div&gt;&lt;div style=&quot;font-size: 11.27px;&quot;&gt;&lt;font style=&quot;font-size: 11.27px;&quot;&gt;&lt;span style=&quot;font-size: 11.27px;&quot;&gt;&lt;span style=&quot;font-size: 11.27px;&quot;&gt;     &lt;/span&gt;CLEAR_BIT(MCUCR_REG,MCUCR_REG_ISC01_BITS);&lt;/span&gt;&lt;/font&gt;&lt;/div&gt;&lt;div style=&quot;font-size: 11.27px;&quot;&gt;&lt;font style=&quot;font-size: 11.27px;&quot;&gt;&lt;span style=&quot;font-size: 11.27px;&quot;&gt;&lt;span style=&quot;font-size: 11.27px;&quot;&gt;     &lt;/span&gt;SET_BIT(MCUCR_REG,MCUCR_REG_ISC00_BITS);&lt;/span&gt;&lt;/font&gt;&lt;/div&gt;&lt;div style=&quot;font-size: 11.27px;&quot;&gt;&lt;font style=&quot;font-size: 11.27px;&quot;&gt;&lt;span style=&quot;font-size: 11.27px;&quot;&gt;&lt;span style=&quot;font-size: 11.27px;&quot;&gt;     &lt;/span&gt;SET_BIT(GICR_REG,GICR_REG_INT0_BITS);&lt;/span&gt;&lt;/font&gt;&lt;/div&gt;" style="rounded=0;whiteSpace=wrap;html=1;fontSize=11.27;fillColor=#d5e8d4;strokeColor=#82b366;fontFamily=Calibri;" vertex="1" parent="1">
          <mxGeometry x="710" y="550" width="240" height="80" as="geometry" />
        </mxCell>
        <mxCell id="KIi-ZBUEU_rnXSu9s31x-9" value="" style="endArrow=classic;html=1;rounded=0;fontSize=11.27;startSize=8;endSize=8;curved=1;fontFamily=Calibri;exitX=0.5;exitY=1;exitDx=0;exitDy=0;exitPerimeter=0;" edge="1" parent="1" source="KIi-ZBUEU_rnXSu9s31x-6">
          <mxGeometry width="50" height="50" relative="1" as="geometry">
            <mxPoint x="835" y="460" as="sourcePoint" />
            <mxPoint x="835" y="550" as="targetPoint" />
          </mxGeometry>
        </mxCell>
        <mxCell id="KIi-ZBUEU_rnXSu9s31x-10" value="YES" style="text;html=1;strokeColor=none;fillColor=none;align=center;verticalAlign=middle;whiteSpace=wrap;rounded=0;fontSize=11;fontFamily=Calibri;" vertex="1" parent="1">
          <mxGeometry x="765" y="510" width="60" height="30" as="geometry" />
        </mxCell>
        <mxCell id="KIi-ZBUEU_rnXSu9s31x-11" value="" style="endArrow=classic;html=1;rounded=0;fontSize=11.27;startSize=8;endSize=8;curved=1;exitX=1;exitY=0.5;exitDx=0;exitDy=0;exitPerimeter=0;fontFamily=Calibri;" edge="1" parent="1" source="KIi-ZBUEU_rnXSu9s31x-1" target="KIi-ZBUEU_rnXSu9s31x-6">
          <mxGeometry width="50" height="50" relative="1" as="geometry">
            <mxPoint x="665" y="360" as="sourcePoint" />
            <mxPoint x="715" y="310" as="targetPoint" />
          </mxGeometry>
        </mxCell>
        <mxCell id="KIi-ZBUEU_rnXSu9s31x-12" value="NO" style="text;html=1;strokeColor=none;fillColor=none;align=center;verticalAlign=middle;whiteSpace=wrap;rounded=0;fontSize=11;fontFamily=Calibri;" vertex="1" parent="1">
          <mxGeometry x="615" y="340" width="60" height="30" as="geometry" />
        </mxCell>
        <UserObject label="" Function="EN_DIO_Error_T DIO_init(uint8_t pinNumber, EN_DIO_PORT_T portNumber, EN_DIO_DIRECTION_T direction);" tags="Flowchart" id="KIi-ZBUEU_rnXSu9s31x-13">
          <mxCell style="vsdxID=219;fillColor=#fff2cc;shape=stencil(UzV2Ls5ILEhVNTIoLinKz04tz0wpyVA1dlE1MsrMy0gtyiwBslSNXVWNndPyi1LTi/JL81Ig/IJEkEoQKze/DGRCBUSfAUiHkUElhGcK4bpBVOZk5iGpNEVVikeloQHZpsK0YlWLz1QgA+HFtMycHEgIIcujBwlQCBKcxq4A);strokeColor=#d6b656;spacingTop=-1;spacingBottom=-1;spacingLeft=-1;spacingRight=-1;points=[[0,0.5,0],[1,0.5,0],[0.5,0,0],[0.5,1,0]];labelBackgroundColor=none;rounded=1;html=1;whiteSpace=wrap;fontFamily=Calibri;fontSize=11.27;" vertex="1" parent="1">
            <mxGeometry x="1060" y="320" width="280" height="130" as="geometry" />
          </mxCell>
        </UserObject>
        <mxCell id="KIi-ZBUEU_rnXSu9s31x-14" value="&lt;div style=&quot;font-size: 11.27px;&quot;&gt;&lt;font style=&quot;font-size: 11.27px;&quot;&gt;Sense_Control ==&amp;nbsp;FALLING_EDGE_SENSE_CONTROL&lt;/font&gt;&lt;br style=&quot;font-size: 11.27px;&quot;&gt;&lt;/div&gt;" style="text;vsdxID=219;fillColor=none;gradientColor=none;strokeColor=none;spacingTop=-1;spacingBottom=-1;spacingLeft=-1;spacingRight=-1;points=[[0,0.5,0],[1,0.5,0],[0.5,0,0],[0.5,1,0]];labelBackgroundColor=none;rounded=1;html=1;whiteSpace=wrap;verticalAlign=middle;align=center;overflow=width;;html=1;fontColor=#000000;fontFamily=Calibri;fontSize=11.27;" vertex="1" parent="KIi-ZBUEU_rnXSu9s31x-13">
          <mxGeometry x="60.02" y="16.1" width="169.98" height="93.9" as="geometry" />
        </mxCell>
        <mxCell id="KIi-ZBUEU_rnXSu9s31x-15" value="&lt;div style=&quot;font-size: 11.27px;&quot;&gt;&lt;font style=&quot;font-size: 11.27px;&quot;&gt;MCU_vEnableInterrupt();&lt;/font&gt;&lt;/div&gt;&lt;div style=&quot;font-size: 11.27px;&quot;&gt;&lt;font style=&quot;font-size: 11.27px;&quot;&gt;&lt;span style=&quot;font-size: 11.27px;&quot;&gt;&lt;span style=&quot;font-size: 11.27px;&quot;&gt;     &lt;/span&gt;SET_BIT(MCUCR_REG,MCUCR_REG_ISC01_BITS);&lt;/span&gt;&lt;/font&gt;&lt;/div&gt;&lt;div style=&quot;font-size: 11.27px;&quot;&gt;&lt;font style=&quot;font-size: 11.27px;&quot;&gt;&lt;span style=&quot;font-size: 11.27px;&quot;&gt;&lt;span style=&quot;font-size: 11.27px;&quot;&gt;     &lt;/span&gt;CLEAR_BIT(MCUCR_REG,MCUCR_REG_ISC00_BITS);&lt;/span&gt;&lt;/font&gt;&lt;/div&gt;&lt;div style=&quot;font-size: 11.27px;&quot;&gt;&lt;font style=&quot;font-size: 11.27px;&quot;&gt;&lt;span style=&quot;font-size: 11.27px;&quot;&gt;&lt;span style=&quot;font-size: 11.27px;&quot;&gt;     &lt;/span&gt;SET_BIT(GICR_REG,GICR_REG_INT0_BITS);&lt;/span&gt;&lt;/font&gt;&lt;/div&gt;" style="rounded=0;whiteSpace=wrap;html=1;fontSize=11.27;fillColor=#d5e8d4;strokeColor=#82b366;fontFamily=Calibri;" vertex="1" parent="1">
          <mxGeometry x="1105" y="540" width="240" height="80" as="geometry" />
        </mxCell>
        <mxCell id="KIi-ZBUEU_rnXSu9s31x-16" value="" style="endArrow=classic;html=1;rounded=0;fontSize=11.27;startSize=8;endSize=8;curved=1;exitX=0.5;exitY=1;exitDx=0;exitDy=0;exitPerimeter=0;entryX=0.396;entryY=0;entryDx=0;entryDy=0;fontFamily=Calibri;entryPerimeter=0;" edge="1" parent="1" source="KIi-ZBUEU_rnXSu9s31x-13" target="KIi-ZBUEU_rnXSu9s31x-15">
          <mxGeometry width="50" height="50" relative="1" as="geometry">
            <mxPoint x="1105" y="310" as="sourcePoint" />
            <mxPoint x="1155" y="260" as="targetPoint" />
          </mxGeometry>
        </mxCell>
        <mxCell id="KIi-ZBUEU_rnXSu9s31x-17" value="YES" style="text;html=1;strokeColor=none;fillColor=none;align=center;verticalAlign=middle;whiteSpace=wrap;rounded=0;fontSize=11;fontFamily=Calibri;" vertex="1" parent="1">
          <mxGeometry x="1140" y="490" width="60" height="30" as="geometry" />
        </mxCell>
        <mxCell id="KIi-ZBUEU_rnXSu9s31x-18" value="" style="endArrow=classic;html=1;rounded=0;fontSize=11.27;startSize=8;endSize=8;curved=1;exitX=1;exitY=0.5;exitDx=0;exitDy=0;exitPerimeter=0;fontFamily=Calibri;" edge="1" parent="1" target="KIi-ZBUEU_rnXSu9s31x-13">
          <mxGeometry width="50" height="50" relative="1" as="geometry">
            <mxPoint x="975" y="385" as="sourcePoint" />
            <mxPoint x="1080" y="310" as="targetPoint" />
          </mxGeometry>
        </mxCell>
        <mxCell id="KIi-ZBUEU_rnXSu9s31x-19" value="NO" style="text;html=1;strokeColor=none;fillColor=none;align=center;verticalAlign=middle;whiteSpace=wrap;rounded=0;fontSize=11;fontFamily=Calibri;" vertex="1" parent="1">
          <mxGeometry x="980" y="340" width="60" height="30" as="geometry" />
        </mxCell>
        <UserObject label="" Function="EN_DIO_Error_T DIO_init(uint8_t pinNumber, EN_DIO_PORT_T portNumber, EN_DIO_DIRECTION_T direction);" tags="Flowchart" id="KIi-ZBUEU_rnXSu9s31x-20">
          <mxCell style="vsdxID=219;fillColor=#fff2cc;shape=stencil(UzV2Ls5ILEhVNTIoLinKz04tz0wpyVA1dlE1MsrMy0gtyiwBslSNXVWNndPyi1LTi/JL81Ig/IJEkEoQKze/DGRCBUSfAUiHkUElhGcK4bpBVOZk5iGpNEVVikeloQHZpsK0YlWLz1QgA+HFtMycHEgIIcujBwlQCBKcxq4A);strokeColor=#d6b656;spacingTop=-1;spacingBottom=-1;spacingLeft=-1;spacingRight=-1;points=[[0,0.5,0],[1,0.5,0],[0.5,0,0],[0.5,1,0]];labelBackgroundColor=none;rounded=1;html=1;whiteSpace=wrap;fontFamily=Calibri;fontSize=11.27;" vertex="1" parent="1">
            <mxGeometry x="1425" y="320" width="280" height="130" as="geometry" />
          </mxCell>
        </UserObject>
        <mxCell id="KIi-ZBUEU_rnXSu9s31x-21" value="&lt;div style=&quot;font-size: 11.27px;&quot;&gt;&lt;font style=&quot;font-size: 11.27px;&quot;&gt;Sense_Control ==&amp;nbsp;RISING_EDGE_SENSE_CONTROL&lt;/font&gt;&lt;br style=&quot;font-size: 11.27px;&quot;&gt;&lt;/div&gt;" style="text;vsdxID=219;fillColor=none;gradientColor=none;strokeColor=none;spacingTop=-1;spacingBottom=-1;spacingLeft=-1;spacingRight=-1;points=[[0,0.5,0],[1,0.5,0],[0.5,0,0],[0.5,1,0]];labelBackgroundColor=none;rounded=1;html=1;whiteSpace=wrap;verticalAlign=middle;align=center;overflow=width;;html=1;fontColor=#000000;fontFamily=Calibri;fontSize=11.27;" vertex="1" parent="KIi-ZBUEU_rnXSu9s31x-20">
          <mxGeometry x="60.01655172413793" y="16.103749999999998" width="159.96689655172415" height="89.65937499999998" as="geometry" />
        </mxCell>
        <mxCell id="KIi-ZBUEU_rnXSu9s31x-22" value="&lt;div style=&quot;font-size: 11.27px;&quot;&gt;&lt;font style=&quot;font-size: 11.27px;&quot;&gt;MCU_vEnableInterrupt();&lt;/font&gt;&lt;/div&gt;&lt;div style=&quot;font-size: 11.27px;&quot;&gt;&lt;font style=&quot;font-size: 11.27px;&quot;&gt;&lt;span style=&quot;font-size: 11.27px;&quot;&gt;&lt;span style=&quot;font-size: 11.27px;&quot;&gt;     &lt;/span&gt;SET_BIT(MCUCR_REG,MCUCR_REG_ISC01_BITS);&lt;/span&gt;&lt;/font&gt;&lt;/div&gt;&lt;div style=&quot;font-size: 11.27px;&quot;&gt;&lt;font style=&quot;font-size: 11.27px;&quot;&gt;&lt;span style=&quot;font-size: 11.27px;&quot;&gt;&lt;span style=&quot;font-size: 11.27px;&quot;&gt;     &lt;/span&gt;SET_BIT(MCUCR_REG,MCUCR_REG_ISC00_BITS);&lt;/span&gt;&lt;/font&gt;&lt;/div&gt;&lt;div style=&quot;font-size: 11.27px;&quot;&gt;&lt;font style=&quot;font-size: 11.27px;&quot;&gt;&lt;span style=&quot;font-size: 11.27px;&quot;&gt;&lt;span style=&quot;font-size: 11.27px;&quot;&gt;     &lt;/span&gt;SET_BIT(GICR_REG,GICR_REG_INT0_BITS);&lt;/span&gt;&lt;/font&gt;&lt;/div&gt;" style="rounded=0;whiteSpace=wrap;html=1;fontSize=11.27;fillColor=#d5e8d4;strokeColor=#82b366;fontFamily=Calibri;" vertex="1" parent="1">
          <mxGeometry x="1460" y="540" width="240" height="80" as="geometry" />
        </mxCell>
        <mxCell id="KIi-ZBUEU_rnXSu9s31x-23" value="" style="endArrow=classic;html=1;rounded=0;fontSize=11.27;startSize=8;endSize=8;curved=1;exitX=0.5;exitY=1;exitDx=0;exitDy=0;exitPerimeter=0;entryX=0.442;entryY=-0.008;entryDx=0;entryDy=0;fontFamily=Calibri;entryPerimeter=0;" edge="1" parent="1" source="KIi-ZBUEU_rnXSu9s31x-20" target="KIi-ZBUEU_rnXSu9s31x-22">
          <mxGeometry width="50" height="50" relative="1" as="geometry">
            <mxPoint x="1470" y="310" as="sourcePoint" />
            <mxPoint x="1520" y="260" as="targetPoint" />
          </mxGeometry>
        </mxCell>
        <mxCell id="KIi-ZBUEU_rnXSu9s31x-24" value="YES" style="text;html=1;strokeColor=none;fillColor=none;align=center;verticalAlign=middle;whiteSpace=wrap;rounded=0;fontSize=11;fontFamily=Calibri;" vertex="1" parent="1">
          <mxGeometry x="1500" y="490" width="60" height="30" as="geometry" />
        </mxCell>
        <mxCell id="KIi-ZBUEU_rnXSu9s31x-25" value="" style="endArrow=classic;html=1;rounded=0;fontSize=11.27;startSize=8;endSize=8;curved=1;exitX=1;exitY=0.5;exitDx=0;exitDy=0;exitPerimeter=0;fontFamily=Calibri;" edge="1" parent="1" target="KIi-ZBUEU_rnXSu9s31x-20">
          <mxGeometry width="50" height="50" relative="1" as="geometry">
            <mxPoint x="1340" y="385" as="sourcePoint" />
            <mxPoint x="1445" y="310" as="targetPoint" />
          </mxGeometry>
        </mxCell>
        <mxCell id="KIi-ZBUEU_rnXSu9s31x-26" value="NO" style="text;html=1;strokeColor=none;fillColor=none;align=center;verticalAlign=middle;whiteSpace=wrap;rounded=0;fontSize=11;fontFamily=Calibri;" vertex="1" parent="1">
          <mxGeometry x="1345" y="340" width="60" height="30" as="geometry" />
        </mxCell>
        <mxCell id="KIi-ZBUEU_rnXSu9s31x-27" value="NO" style="text;html=1;strokeColor=none;fillColor=none;align=center;verticalAlign=middle;whiteSpace=wrap;rounded=0;fontSize=11;fontFamily=Calibri;" vertex="1" parent="1">
          <mxGeometry x="1708.5" y="350" width="60" height="30" as="geometry" />
        </mxCell>
        <UserObject label="&lt;div style=&quot;font-size: 1px&quot;&gt;&lt;font style=&quot;font-size: 11.29px; direction: ltr; letter-spacing: 0px; line-height: 120%; opacity: 1;&quot;&gt;Stop&lt;/font&gt;&lt;/div&gt;" Function="EN_DIO_Error_T DIO_init(uint8_t pinNumber, EN_DIO_PORT_T portNumber, EN_DIO_DIRECTION_T direction);" tags="Flowchart" id="KIi-ZBUEU_rnXSu9s31x-28">
          <mxCell style="verticalAlign=middle;align=center;overflow=width;vsdxID=30;fillColor=#dae8fc;shape=stencil(tVLREoIgEPwaHnEQxsl3s/9gEpSJwDko7e+DsEkze2l627vdu5uFRaxyHe8FosR5sCcxqMZ3iO0Rpcp0ApQPCLEasUpaEC3Yi2lS3fOojOhsr3HDmObyMtsVcYqS29Qh5FEfklwrM5OXeUa/yjkcAwfr7TDpiyTfXvjkMR+Vw2A998qaBac5tAKHU1hq3i4oNwjRr9ofvayt/+Rk+yX/4iWA159KpXWKxJx/z0Bopfyw+g4=);strokeColor=#6c8ebf;spacingTop=-1;spacingBottom=-1;spacingLeft=-1;spacingRight=-1;points=[[0.5,1,0],[0.5,0,0],[0,0.5,0],[1,0.5,0]];labelBackgroundColor=none;rounded=1;html=1;whiteSpace=wrap;fontFamily=Calibri;" vertex="1" parent="1">
            <mxGeometry x="959.5" y="720" width="101" height="38" as="geometry" />
          </mxCell>
        </UserObject>
        <mxCell id="KIi-ZBUEU_rnXSu9s31x-29" value="" style="endArrow=classic;html=1;rounded=0;fontSize=12;startSize=8;endSize=8;curved=1;entryX=0.5;entryY=0;entryDx=0;entryDy=0;exitX=0.5;exitY=1;exitDx=0;exitDy=0;exitPerimeter=0;" edge="1" parent="1" source="KIi-ZBUEU_rnXSu9s31x-1" target="KIi-ZBUEU_rnXSu9s31x-3">
          <mxGeometry width="50" height="50" relative="1" as="geometry">
            <mxPoint x="530" y="480" as="sourcePoint" />
            <mxPoint x="660" y="560" as="targetPoint" />
          </mxGeometry>
        </mxCell>
        <mxCell id="KIi-ZBUEU_rnXSu9s31x-30" value="" style="endArrow=classic;html=1;rounded=0;fontSize=12;startSize=8;endSize=8;exitX=1;exitY=0.5;exitDx=0;exitDy=0;exitPerimeter=0;entryX=1;entryY=0.5;entryDx=0;entryDy=0;entryPerimeter=0;edgeStyle=orthogonalEdgeStyle;" edge="1" parent="1" source="KIi-ZBUEU_rnXSu9s31x-20" target="KIi-ZBUEU_rnXSu9s31x-28">
          <mxGeometry width="50" height="50" relative="1" as="geometry">
            <mxPoint x="1180" y="470" as="sourcePoint" />
            <mxPoint x="1230" y="420" as="targetPoint" />
            <Array as="points">
              <mxPoint x="1780" y="385" />
              <mxPoint x="1780" y="739" />
            </Array>
          </mxGeometry>
        </mxCell>
        <mxCell id="KIi-ZBUEU_rnXSu9s31x-31" value="" style="endArrow=classic;html=1;rounded=0;fontSize=12;startSize=8;endSize=8;exitX=0.5;exitY=1;exitDx=0;exitDy=0;entryX=1;entryY=0.5;entryDx=0;entryDy=0;entryPerimeter=0;edgeStyle=orthogonalEdgeStyle;" edge="1" parent="1" source="KIi-ZBUEU_rnXSu9s31x-22" target="KIi-ZBUEU_rnXSu9s31x-28">
          <mxGeometry width="50" height="50" relative="1" as="geometry">
            <mxPoint x="1180" y="470" as="sourcePoint" />
            <mxPoint x="1230" y="420" as="targetPoint" />
          </mxGeometry>
        </mxCell>
        <mxCell id="KIi-ZBUEU_rnXSu9s31x-32" value="" style="endArrow=classic;html=1;rounded=0;fontSize=12;startSize=8;endSize=8;exitX=0.5;exitY=1;exitDx=0;exitDy=0;entryX=1;entryY=0.5;entryDx=0;entryDy=0;entryPerimeter=0;edgeStyle=orthogonalEdgeStyle;" edge="1" parent="1" source="KIi-ZBUEU_rnXSu9s31x-15" target="KIi-ZBUEU_rnXSu9s31x-28">
          <mxGeometry width="50" height="50" relative="1" as="geometry">
            <mxPoint x="990" y="470" as="sourcePoint" />
            <mxPoint x="1040" y="420" as="targetPoint" />
          </mxGeometry>
        </mxCell>
        <mxCell id="KIi-ZBUEU_rnXSu9s31x-33" value="" style="endArrow=classic;html=1;rounded=0;fontSize=12;startSize=8;endSize=8;exitX=0.456;exitY=1.002;exitDx=0;exitDy=0;exitPerimeter=0;edgeStyle=orthogonalEdgeStyle;entryX=0;entryY=0.5;entryDx=0;entryDy=0;entryPerimeter=0;" edge="1" parent="1" source="KIi-ZBUEU_rnXSu9s31x-8" target="KIi-ZBUEU_rnXSu9s31x-28">
          <mxGeometry width="50" height="50" relative="1" as="geometry">
            <mxPoint x="730" y="470" as="sourcePoint" />
            <mxPoint x="910" y="739" as="targetPoint" />
            <Array as="points">
              <mxPoint x="819" y="739" />
            </Array>
          </mxGeometry>
        </mxCell>
        <mxCell id="KIi-ZBUEU_rnXSu9s31x-34" value="" style="endArrow=classic;html=1;rounded=0;fontSize=12;startSize=8;endSize=8;exitX=0.5;exitY=1;exitDx=0;exitDy=0;entryX=0;entryY=0.5;entryDx=0;entryDy=0;entryPerimeter=0;edgeStyle=orthogonalEdgeStyle;" edge="1" parent="1" source="KIi-ZBUEU_rnXSu9s31x-3" target="KIi-ZBUEU_rnXSu9s31x-28">
          <mxGeometry width="50" height="50" relative="1" as="geometry">
            <mxPoint x="730" y="470" as="sourcePoint" />
            <mxPoint x="780" y="420" as="targetPoint" />
          </mxGeometry>
        </mxCell>
        <UserObject label="&lt;div style=&quot;font-size: 1px&quot;&gt;&lt;font style=&quot;font-size: 11.29px; direction: ltr; letter-spacing: 0px; line-height: 120%; opacity: 1;&quot;&gt;Start&lt;/font&gt;&lt;/div&gt;" Function="EN_DIO_Error_T DIO_init(uint8_t pinNumber, EN_DIO_PORT_T portNumber, EN_DIO_DIRECTION_T direction);" tags="Flowchart" id="KIi-ZBUEU_rnXSu9s31x-35">
          <mxCell style="verticalAlign=middle;align=center;overflow=width;vsdxID=30;fillColor=#dae8fc;shape=stencil(tVLREoIgEPwaHnEQxsl3s/9gEpSJwDko7e+DsEkze2l627vdu5uFRaxyHe8FosR5sCcxqMZ3iO0Rpcp0ApQPCLEasUpaEC3Yi2lS3fOojOhsr3HDmObyMtsVcYqS29Qh5FEfklwrM5OXeUa/yjkcAwfr7TDpiyTfXvjkMR+Vw2A998qaBac5tAKHU1hq3i4oNwjRr9ofvayt/+Rk+yX/4iWA159KpXWKxJx/z0Bopfyw+g4=);strokeColor=#6c8ebf;spacingTop=-1;spacingBottom=-1;spacingLeft=-1;spacingRight=-1;points=[[0.5,1,0],[0.5,0,0],[0,0.5,0],[1,0.5,0]];labelBackgroundColor=none;rounded=1;html=1;whiteSpace=wrap;fontFamily=Calibri;" vertex="1" parent="1">
            <mxGeometry x="120" y="366" width="101" height="38" as="geometry" />
          </mxCell>
        </UserObject>
        <mxCell id="KIi-ZBUEU_rnXSu9s31x-36" value="" style="endArrow=classic;html=1;rounded=0;fontSize=12;startSize=8;endSize=8;curved=1;exitX=1;exitY=0.5;exitDx=0;exitDy=0;exitPerimeter=0;" edge="1" parent="1" source="KIi-ZBUEU_rnXSu9s31x-35" target="KIi-ZBUEU_rnXSu9s31x-1">
          <mxGeometry width="50" height="50" relative="1" as="geometry">
            <mxPoint x="990" y="490" as="sourcePoint" />
            <mxPoint x="1040" y="440" as="targetPoint" />
          </mxGeometry>
        </mxCell>
        <mxCell id="KIi-ZBUEU_rnXSu9s31x-37" value="EXT_vINTERRUPT_setSenseControl_EXT0&lt;span id=&quot;docs-internal-guid-98234657-7fff-04d9-a120-3d8ea489c442&quot; style=&quot;font-weight:normal;&quot;&gt;&lt;/span&gt;" style="swimlane;whiteSpace=wrap;html=1;rounded=1;fontSize=16;fontFamily=Calibri;fillColor=#ffe6cc;strokeColor=#d79b00;" vertex="1" parent="1">
          <mxGeometry x="80" y="270" width="1850" height="550" as="geometry">
            <mxRectangle x="-207" y="152.5" width="134" height="31" as="alternateBounds" />
          </mxGeometry>
        </mxCell>
      </root>
    </mxGraphModel>
  </diagram>
</mxfile>
